<svg width="24" height="24" viewBox="0 0 24 24" fill="none" xmlns="http://www.w3.org/2000/svg">
<path d="M12.0045 20.25V20.25L11.9958 20.25C11.9629 20.2502 11.9303 20.2439 11.8998 20.2315C11.8697 20.2192 11.8423 20.2011 11.8191 20.1784C11.8188 20.1781 11.8186 20.1778 11.8183 20.1775L4.0532 12.4025C4.05281 12.4021 4.05243 12.4017 4.05204 12.4013C3.2171 11.557 2.74878 10.4175 2.74878 9.23002C2.74878 8.04285 3.21687 6.90359 4.05143 6.05937C4.89293 5.22115 6.03231 4.75049 7.22012 4.75049C8.40862 4.75049 9.54864 5.22171 10.3903 6.06085C10.3904 6.06093 10.3905 6.06101 10.3905 6.0611L11.4698 7.14035L12.0001 7.67068L12.5304 7.14035L13.6097 6.0611C13.6098 6.06101 13.6099 6.06093 13.6099 6.06085C14.4516 5.22171 15.5916 4.75049 16.7801 4.75049C17.9679 4.75049 19.1072 5.22112 19.9487 6.05927C20.7833 6.90351 21.2515 8.0428 21.2515 9.23002C21.2515 10.4175 20.7831 11.5571 19.9481 12.4014C19.9478 12.4017 19.9474 12.4021 19.947 12.4025L12.182 20.1775C12.1817 20.1778 12.1814 20.1781 12.1811 20.1784C12.1579 20.2011 12.1305 20.2192 12.1004 20.2315C12.07 20.2439 12.0374 20.2502 12.0045 20.25Z" stroke="currentColor" stroke-width="1.5"/>
</svg>
