<svg width="24" height="24" viewBox="0 0 24 24" fill="none" xmlns="http://www.w3.org/2000/svg">
<path d="M2.40002 9.24378C2.40002 8.84976 2.60057 8.4801 2.93823 8.25176L11.2582 2.62524C11.7023 2.32491 12.2977 2.32491 12.7418 2.62524L21.0618 8.25176C21.3995 8.48011 21.6 8.84976 21.6 9.24378V19.7741C21.6 20.7825 20.7404 21.6 19.68 21.6H4.32002C3.25964 21.6 2.40002 20.7825 2.40002 19.7741V9.24378Z" stroke="black" stroke-width="1.5"/>
<path d="M14.4 13.2C14.4 14.5255 13.3255 15.6 12 15.6C10.6745 15.6 9.60002 14.5255 9.60002 13.2C9.60002 11.8745 10.6745 10.8 12 10.8C13.3255 10.8 14.4 11.8745 14.4 13.2Z" stroke="black" stroke-width="1.5"/>
</svg>
